<svg xmlns="http://www.w3.org/2000/svg" viewBox="0 0 209.07 137.4"><defs><style>.cls-1{fill:#2f9445;}.cls-2{fill:#309545;}.cls-3{fill:#6accf4;}</style></defs><g id="Layer_2" data-name="Layer 2"><g id="Layer_10" data-name="Layer 10"><path class="cls-1" d="M3.25,88.72H13.54c10.21,0,12.69,5.29,12.69,14.22v18.44c0,7.36-1.26,15.44-12.7,15.44H3.25Zm7.42,41.79h2.38c4.88,0,5.62-3.14,5.62-8.12v-20c0-4.42-.78-7.25-5.67-7.25H10.67Z" transform="translate(-3.25)"/><path class="cls-1" d="M52.73,111v14.32c0,8-4,12.08-11,12.08-7.26,0-10.85-4.19-10.85-12V110.69C30.88,102.62,35.47,99,42,99,48.69,99,52.73,103.12,52.73,111Zm-14.42-.43v15.06c0,3,.91,5.2,3.56,5.2,2.47,0,3.43-1.83,3.43-5.33v-15c0-2.87-.77-5-3.49-5C39.39,105.55,38.31,107.28,38.31,110.57Z" transform="translate(-3.25)"/><path class="cls-1" d="M79,111v14.32c0,8-4,12.08-11,12.08-7.26,0-10.85-4.19-10.85-12V110.69c0-8.07,4.59-11.71,11.07-11.71C75,99,79,103.12,79,111Zm-14.42-.43v15.06c0,3,.91,5.2,3.55,5.2,2.48,0,3.44-1.83,3.44-5.33v-15c0-2.87-.77-5-3.49-5C65.67,105.55,64.59,107.28,64.59,110.57Z" transform="translate(-3.25)"/><path class="cls-1" d="M84.17,112.18c0-6.18.07-8.82-.07-12.63h7c.07.72.21,4,.21,6,1.47-5,4.75-6.58,8.21-6.6v9.15c-4.25,0-8,1.09-8,8.72v20H84.17Z" transform="translate(-3.25)"/><path class="cls-1" d="M108.11,136.82l-6.59-48.1h7.89c1.11,10.38,2.59,26.34,3,35.43h.14c1.1-10.19,3.11-24.89,4.48-35.43h7.21c1.43,10.9,3.43,24.48,4.41,35.09h.15c.57-9.39,2-24.19,3.09-35.09h7.5l-7.11,48.1h-7.57c-1.36-10.78-3.24-23.61-4.27-33.51h-.13c-1.12,10.11-3.22,23.15-4.66,33.51Z" transform="translate(-3.25)"/><path class="cls-1" d="M161.17,129.19c0,2.35,0,6.22.14,7.63h-6.78c-.15-.7-.41-2.2-.47-2.73-1.27,2.28-3.29,3.31-6.15,3.31-5.61,0-7.87-5.19-7.87-10.82v-.64c0-9.19,6.19-11.63,12.91-11.63h.85v-4.76c0-2.92-.35-4.56-2.61-4.56s-2.7,1.72-2.7,4v.61H141.2v-.48c0-5.4,2.07-10.17,10.26-10.17,7.19,0,9.71,4,9.71,10Zm-7.23-9.26H152.7c-3.38,0-5.61,1.28-5.61,5.92v.59c0,2.63.95,4.5,3.27,4.5,2.48,0,3.58-1.71,3.58-6.74Z" transform="translate(-3.25)"/><path class="cls-1" d="M173,125.16v1.7c0,2.3.64,4.29,3,4.29,2,0,2.88-1.23,2.88-3.71s-.68-4.07-5.2-7c-5.12-3.3-7.59-6-7.59-11.33,0-6.3,3.38-10.15,9.87-10.15,7,0,9.85,3.88,9.85,10.71v1.49h-7.17v-2.29c0-2.6-.87-3.66-2.63-3.66s-2.56,1.33-2.56,3.29.7,3,4.09,5.21c6.52,4.15,8.83,6.79,8.83,12.89,0,7.13-3.58,10.78-10.59,10.78-8.37,0-10.29-5.26-10.29-10.59v-1.65Z" transform="translate(-3.25)"/><path class="cls-1" d="M197.93,86.63v16c1.17-2.15,3.27-3.66,6.93-3.66,5.7,0,7.46,4.27,7.46,9.59v28.25h-7.41V110.54c0-2.75-.55-4.91-3.27-4.91-2.89,0-3.71,1.89-3.71,6.15v25h-7.41V86.63Z" transform="translate(-3.25)"/><path class="cls-2" d="M97.81,54.67h47.72c7.22,0-1.21-33.35-7.23-33.35H90.58C83,21.32,91.78,54.67,97.81,54.67Z" transform="translate(-3.25)"/><path class="cls-2" d="M83,68.24c-2-4.19-6.27-6.33-9.46-4.78s-4.11,6.2-2.07,10.39,6.28,6.33,9.46,4.78S85.07,72.43,83,68.24Zm-5.76,3.5A.7.7,0,1,1,78,71,.7.7,0,0,1,77.27,71.74Z" transform="translate(-3.25)"/><path class="cls-2" d="M137.89,68.24c-2-4.19-6.27-6.33-9.46-4.78s-4.11,6.2-2.06,10.39,6.27,6.33,9.46,4.78S139.93,72.43,137.89,68.24Zm-5.76,3.5a.7.7,0,1,1,.7-.7A.7.7,0,0,1,132.13,71.74Z" transform="translate(-3.25)"/><path class="cls-2" d="M147.8,57.45H90.28c-5,0-7.34-38.5-11.13-38.4-4-.08-9.59-.22-12.75,0-6.57.45-9.14,14.8-9.45,16.38-2,9.8.23,18.2-2.85,24.43,0,0-.1.2-.22.48A5.46,5.46,0,0,0,53.2,63a5.55,5.55,0,0,0,5.55,5.55H67.1c2.57,0,2.57-5.41,7.45-6.85,5.26-1.56,10.06,6.85,14.85,6.85H122c2.57,0,2.57-5.41,7.45-6.85,5.26-1.56,10,6.85,14.85,6.85h3.55a5.56,5.56,0,1,0,0-11.11ZM61.35,36c0-.34.1-.69.16-1,.2-1.18,1.84-11.88,6-12.22,2-.16,5.59-.05,8.13,0,1.15,0,2.1,6.45,3.12,13.25Z" transform="translate(-3.25)"/><path class="cls-3" d="M89.57,18.62c0-.16,0-.32,0-.48a5.51,5.51,0,0,1,2.54-4.43,3.65,3.65,0,0,1-.82-2.24c0-1.7,1.3-3.19,3.21-4A1.88,1.88,0,0,1,94.39,7c0-1.92,2.66-3.47,5.93-3.47h.43c1-2,3.83-3.53,7.12-3.53,4.17,0,7.56,2.35,7.56,5.25h0c4.1,0,7.41,2.55,7.41,5.67v0a10.7,10.7,0,0,1,3-.44c4.33,0,7.87,2.48,8.26,5.64,3.08.14,5.53,2.17,5.53,4.66a3.86,3.86,0,0,1-.14,1,2.63,2.63,0,0,0-1.17-.31H100.69v3.8A1.89,1.89,0,0,1,98.6,26.9l-.25,0V30a1.89,1.89,0,0,1-2.09,1.58c-1.15,0-2.09-.71-2.09-1.58v-.66a2.63,2.63,0,0,1-.76.11c-1.15,0-2.09-.7-2.09-1.57V21.52h-.67a2.35,2.35,0,0,0-1.84.8,3,3,0,0,1-.35-1.41A2.82,2.82,0,0,1,89.57,18.62Z" transform="translate(-3.25)"/></g></g></svg>